<svg width="23" height="22" viewBox="0 0 23 22" fill="none" xmlns="http://www.w3.org/2000/svg">
<path d="M16.2799 7.33317V4.58317C16.2799 4.34006 16.1834 4.1069 16.0115 3.93499C15.8396 3.76308 15.6064 3.6665 15.3633 3.6665H6.19661C5.71038 3.6665 5.24407 3.85966 4.90025 4.20347C4.55644 4.54729 4.36328 5.01361 4.36328 5.49984M4.36328 5.49984C4.36328 5.98607 4.55644 6.45238 4.90025 6.7962C5.24407 7.14002 5.71038 7.33317 6.19661 7.33317H17.1966C17.4397 7.33317 17.6729 7.42975 17.8448 7.60166C18.0167 7.77356 18.1133 8.00672 18.1133 8.24984V10.9998M4.36328 5.49984V16.4998C4.36328 16.9861 4.55644 17.4524 4.90025 17.7962C5.24407 18.14 5.71038 18.3332 6.19661 18.3332H17.1966C17.4397 18.3332 17.6729 18.2366 17.8448 18.0647C18.0167 17.8928 18.1133 17.6596 18.1133 17.4165V14.6665" stroke="#14151D" stroke-width="1.5" stroke-linecap="round" stroke-linejoin="round"/>
<path d="M19.0303 11V14.6667H15.3636C14.8774 14.6667 14.4111 14.4735 14.0672 14.1297C13.7234 13.7859 13.5303 13.3196 13.5303 12.8333C13.5303 12.3471 13.7234 11.8808 14.0672 11.537C14.4111 11.1932 14.8774 11 15.3636 11H19.0303Z" stroke="#14151D" stroke-width="1.5" stroke-linecap="round" stroke-linejoin="round"/>
</svg>
