<svg width="70" height="70" viewBox="0 0 70 70" fill="none" xmlns="http://www.w3.org/2000/svg">
<path d="M19.905 35.3285C19.905 35.3285 21.337 37.4322 24.3383 39.2129C24.3383 39.2129 22.1646 20.8422 36.3276 17.6516C32.699 30.9691 40.9432 34.7249 43.9485 27.689C48.9671 34.3896 45.1566 40.2355 45.1566 40.2355C47.2145 40.5319 48.9431 38.2837 48.9431 38.2837C48.9585 38.5606 48.9671 38.8395 48.9671 39.1203C48.9672 47.2814 42.3513 53.8973 34.1901 53.8973C26.029 53.8973 19.4131 47.2814 19.4131 39.1203C19.4131 37.8093 19.5847 36.5386 19.905 35.3285Z" fill="white" fill-opacity="0.3"/>
<path d="M27.708 47.4166C27.708 50.9957 30.6095 53.8972 34.1886 53.8972C37.7677 53.8972 40.6692 50.9957 40.6692 47.4166C40.6692 45.5009 39.8381 43.7794 38.5166 42.5929C36.011 45.997 32.4403 40.8333 35.223 37.0625C35.223 37.0625 27.708 38.0042 27.708 47.4166Z" fill="white"/>
</svg>
