<svg width="70" height="70" viewBox="0 0 70 70" fill="none" xmlns="http://www.w3.org/2000/svg">
<path d="M33.365 27.0424C33.365 31.5573 30.8797 34.4774 27.0897 34.4774C23.2997 34.4774 20.8145 31.5573 20.8145 27.0424C20.8145 22.5276 23.2997 19.6074 27.0897 19.6074C30.8797 19.6074 33.365 22.5276 33.365 27.0424ZM27.0897 31.9508C28.9122 31.9508 30.0513 30.0869 30.0513 27.0424C30.0513 23.998 28.9122 22.1341 27.0897 22.1341C25.2672 22.1341 24.1281 23.998 24.1281 27.0424C24.1281 30.0869 25.2672 31.9508 27.0897 31.9508ZM26.1785 49.8652H22.5749L34.1105 34.1047L44.445 19.9802H48.0072L36.7822 35.3473L26.1785 49.8652ZM49.7883 42.7409C49.7883 47.2557 47.303 50.1759 43.513 50.1759C39.723 50.1759 37.2378 47.2557 37.2378 42.7409C37.2378 38.226 39.723 35.3059 43.513 35.3059C47.303 35.3059 49.7883 38.226 49.7883 42.7409ZM43.513 47.6492C45.3355 47.6492 46.4746 45.7853 46.4746 42.7409C46.4746 39.6965 45.3355 37.8325 43.513 37.8325C41.6905 37.8325 40.5514 39.6965 40.5514 42.7409C40.5514 45.7853 41.6905 47.6492 43.513 47.6492Z" fill="white"/>
</svg>
