<svg width="70" height="70" viewBox="0 0 70 70" fill="none" xmlns="http://www.w3.org/2000/svg">
<path d="M56.1313 33.9252C55.7493 33.391 46.6417 20.8618 35.0505 20.8618C23.4583 20.8618 14.1835 33.391 13.8015 33.9252C13.488 34.3615 13.488 34.9492 13.8015 35.3847C14.1835 35.9189 23.4583 48.448 35.0505 48.448C46.6417 48.448 55.7493 35.9189 56.1313 35.3846C56.4448 34.9492 56.4448 34.3615 56.1313 33.9252ZM35.0505 43.4323C30.2111 43.4323 26.1058 39.4942 26.1058 34.6549C26.1058 29.8155 30.2111 25.8774 35.0505 25.8774C39.8898 25.8774 43.8279 29.8155 43.8279 34.6549C43.8279 39.4942 39.8898 43.4323 35.0505 43.4323Z" fill="white" fill-opacity="0.3"/>
<path d="M35.051 30.8931C32.9762 30.8931 31.1221 32.5808 31.1221 34.6548C31.1221 36.7296 32.9762 38.4165 35.051 38.4165C37.1249 38.4165 38.8127 36.7296 38.8127 34.6548C38.8127 32.5808 37.1249 30.8931 35.051 30.8931Z" fill="white"/>
</svg>
