<svg width="249" height="48" viewBox="0 0 249 48" fill="none" xmlns="http://www.w3.org/2000/svg">
<path fill-rule="evenodd" clip-rule="evenodd" d="M0.337891 7.10154H23.8309C33.1636 7.10154 40.7293 14.6672 40.7293 24C40.7293 33.3327 33.1636 40.8984 23.8309 40.8984H6.93241V27.7094H23.4187C25.2397 27.7094 26.716 26.2331 26.716 24.4121C26.716 22.5911 25.2397 21.1148 23.4187 21.1148H0.337891V40.8984V44.1956V47.4929H23.8309C36.8057 47.4929 47.3238 36.9748 47.3238 24C47.3238 11.0252 36.8057 0.507019 23.8309 0.507019H0.337891V7.10154Z" fill="white"/>
<path d="M78.5533 37H69.6751V9.57522H78.8345C81.5217 9.57522 83.8294 10.1243 85.7577 11.2223C87.686 12.3115 89.1635 13.8782 90.1901 15.9226C91.2257 17.958 91.7435 20.3996 91.7435 23.2474C91.7435 26.1042 91.2212 28.5592 90.1767 30.6125C89.1411 32.6658 87.6413 34.2459 85.6773 35.3529C83.7133 36.451 81.3387 37 78.5533 37ZM73.8129 33.3844H78.3257C80.4147 33.3844 82.151 32.9916 83.5348 32.206C84.9185 31.4115 85.9541 30.2643 86.6415 28.7645C87.3289 27.2558 87.6726 25.4168 87.6726 23.2474C87.6726 21.096 87.3289 19.2703 86.6415 17.7705C85.963 16.2707 84.9498 15.1325 83.6017 14.3558C82.2537 13.5791 80.5798 13.1908 78.5801 13.1908H73.8129V33.3844ZM106.891 37.4151C104.864 37.4151 103.119 36.9821 101.655 36.1162C100.2 35.2413 99.0748 34.0138 98.2802 32.4337C97.4946 30.8446 97.1018 28.9833 97.1018 26.8496C97.1018 24.7428 97.4946 22.8859 98.2802 21.279C99.0748 19.672 100.182 18.4177 101.601 17.5161C103.03 16.6144 104.699 16.1636 106.609 16.1636C107.77 16.1636 108.895 16.3555 109.984 16.7394C111.073 17.1233 112.051 17.7259 112.917 18.5472C113.783 19.3685 114.466 20.4353 114.965 21.7476C115.465 23.051 115.715 24.6356 115.715 26.5015V27.9209H99.3649V24.9213H111.792C111.792 23.8679 111.578 22.935 111.149 22.1226C110.72 21.3013 110.118 20.654 109.341 20.1809C108.573 19.7077 107.672 19.4712 106.636 19.4712C105.511 19.4712 104.529 19.7479 103.69 20.3014C102.86 20.846 102.217 21.5602 101.762 22.444C101.316 23.3189 101.092 24.2696 101.092 25.2963V27.6397C101.092 29.0145 101.333 30.184 101.815 31.1481C102.306 32.1123 102.989 32.8488 103.864 33.3576C104.739 33.8576 105.761 34.1075 106.931 34.1075C107.69 34.1075 108.382 34.0004 109.006 33.7862C109.631 33.563 110.171 33.2327 110.627 32.7952C111.082 32.3578 111.43 31.8177 111.671 31.1749L115.461 31.8579C115.157 32.9738 114.613 33.9513 113.827 34.7905C113.051 35.6207 112.073 36.268 110.895 36.7322C109.725 37.1875 108.39 37.4151 106.891 37.4151ZM121.937 37V9.57522H138.944V13.1372H126.075V21.4932H137.725V25.0418H126.075V37H121.937ZM145.169 37V16.4314H149.173V37H145.169ZM147.192 13.2577C146.495 13.2577 145.897 13.0256 145.397 12.5614C144.906 12.0883 144.661 11.5258 144.661 10.8741C144.661 10.2135 144.906 9.6511 145.397 9.18688C145.897 8.71373 146.495 8.47716 147.192 8.47716C147.888 8.47716 148.482 8.71373 148.973 9.18688C149.472 9.6511 149.722 10.2135 149.722 10.8741C149.722 11.5258 149.472 12.0883 148.973 12.5614C148.482 13.0256 147.888 13.2577 147.192 13.2577ZM167.777 37V9.57522H177.553C179.686 9.57522 181.454 9.96356 182.856 10.7402C184.257 11.5169 185.306 12.5793 186.003 13.9273C186.699 15.2664 187.047 16.7751 187.047 18.4535C187.047 20.1407 186.694 21.6584 185.989 23.0064C185.293 24.3455 184.239 25.4079 182.829 26.1935C181.427 26.9701 179.664 27.3585 177.539 27.3585H170.817V23.85H177.165C178.513 23.85 179.606 23.6179 180.445 23.1537C181.284 22.6806 181.9 22.0378 182.293 21.2254C182.686 20.413 182.882 19.489 182.882 18.4535C182.882 17.4179 182.686 16.4984 182.293 15.6949C181.9 14.8915 181.28 14.2621 180.432 13.8068C179.593 13.3515 178.486 13.1238 177.111 13.1238H171.915V37H167.777ZM201.441 37.4151C199.513 37.4151 197.83 36.9732 196.393 36.0894C194.955 35.2056 193.839 33.9692 193.045 32.3801C192.25 30.791 191.853 28.9342 191.853 26.8094C191.853 24.6758 192.25 22.81 193.045 21.212C193.839 19.614 194.955 18.3731 196.393 17.4893C197.83 16.6055 199.513 16.1636 201.441 16.1636C203.369 16.1636 205.052 16.6055 206.489 17.4893C207.927 18.3731 209.043 19.614 209.837 21.212C210.632 22.81 211.029 24.6758 211.029 26.8094C211.029 28.9342 210.632 30.791 209.837 32.3801C209.043 33.9692 207.927 35.2056 206.489 36.0894C205.052 36.9732 203.369 37.4151 201.441 37.4151ZM201.454 34.054C202.704 34.054 203.74 33.7237 204.561 33.063C205.382 32.4024 205.99 31.5231 206.382 30.425C206.784 29.327 206.985 28.1173 206.985 26.7961C206.985 25.4837 206.784 24.2785 206.382 23.1805C205.99 22.0735 205.382 21.1852 204.561 20.5157C203.74 19.8461 202.704 19.5113 201.454 19.5113C200.196 19.5113 199.151 19.8461 198.321 20.5157C197.5 21.1852 196.888 22.0735 196.486 23.1805C196.094 24.2785 195.897 25.4837 195.897 26.7961C195.897 28.1173 196.094 29.327 196.486 30.425C196.888 31.5231 197.5 32.4024 198.321 33.063C199.151 33.7237 200.196 34.054 201.454 34.054ZM225.62 37.4151C223.692 37.4151 222.009 36.9732 220.572 36.0894C219.135 35.2056 218.019 33.9692 217.224 32.3801C216.43 30.791 216.033 28.9342 216.033 26.8094C216.033 24.6758 216.43 22.81 217.224 21.212C218.019 19.614 219.135 18.3731 220.572 17.4893C222.009 16.6055 223.692 16.1636 225.62 16.1636C227.549 16.1636 229.232 16.6055 230.669 17.4893C232.106 18.3731 233.222 19.614 234.017 21.212C234.811 22.81 235.208 24.6758 235.208 26.8094C235.208 28.9342 234.811 30.791 234.017 32.3801C233.222 33.9692 232.106 35.2056 230.669 36.0894C229.232 36.9732 227.549 37.4151 225.62 37.4151ZM225.634 34.054C226.884 34.054 227.919 33.7237 228.741 33.063C229.562 32.4024 230.169 31.5231 230.562 30.425C230.963 29.327 231.164 28.1173 231.164 26.7961C231.164 25.4837 230.963 24.2785 230.562 23.1805C230.169 22.0735 229.562 21.1852 228.741 20.5157C227.919 19.8461 226.884 19.5113 225.634 19.5113C224.375 19.5113 223.331 19.8461 222.5 20.5157C221.679 21.1852 221.068 22.0735 220.666 23.1805C220.273 24.2785 220.077 25.4837 220.077 26.7961C220.077 28.1173 220.273 29.327 220.666 30.425C221.068 31.5231 221.679 32.4024 222.5 33.063C223.331 33.7237 224.375 34.054 225.634 34.054ZM245.14 9.57522V37H241.136V9.57522H245.14Z" fill="white"/>
</svg>
