<svg width="18" height="18" viewBox="0 0 18 18" fill="none" xmlns="http://www.w3.org/2000/svg">
<path d="M3.75 15.75V3.75C3.75 3.35218 3.90804 2.97064 4.18934 2.68934C4.47064 2.40804 4.85218 2.25 5.25 2.25H12.75C13.1478 2.25 13.5294 2.40804 13.8107 2.68934C14.092 2.97064 14.25 3.35218 14.25 3.75V15.75L12 14.25L10.5 15.75L9 14.25L7.5 15.75L6 14.25L3.75 15.75Z" stroke="white" stroke-width="1.5" stroke-linecap="round" stroke-linejoin="round"/>
<path d="M10.5 6H8.625C8.32663 6 8.04048 6.11853 7.8295 6.3295C7.61853 6.54048 7.5 6.82663 7.5 7.125C7.5 7.42337 7.61853 7.70952 7.8295 7.9205C8.04048 8.13147 8.32663 8.25 8.625 8.25H9.375C9.67337 8.25 9.95952 8.36853 10.1705 8.5795C10.3815 8.79048 10.5 9.07663 10.5 9.375C10.5 9.67337 10.3815 9.95952 10.1705 10.1705C9.95952 10.3815 9.67337 10.5 9.375 10.5H7.5M9 10.5V11.625M9 4.875V6" stroke="white" stroke-width="1.5" stroke-linecap="round" stroke-linejoin="round"/>
</svg>
