<svg width="18" height="18" viewBox="0 0 18 18" fill="none" xmlns="http://www.w3.org/2000/svg">
<g clip-path="url(#clip0_1555_13167)">
<path d="M10.5 2.25V5.25C10.5 5.44891 10.579 5.63968 10.7197 5.78033C10.8603 5.92098 11.0511 6 11.25 6H14.25" stroke="white" stroke-width="1.5" stroke-linecap="round" stroke-linejoin="round"/>
<path d="M12.75 15.75H5.25C4.85218 15.75 4.47064 15.592 4.18934 15.3107C3.90804 15.0294 3.75 14.6478 3.75 14.25V3.75C3.75 3.35218 3.90804 2.97064 4.18934 2.68934C4.47064 2.40804 4.85218 2.25 5.25 2.25H10.5L14.25 6V14.25C14.25 14.6478 14.092 15.0294 13.8107 15.3107C13.5294 15.592 13.1478 15.75 12.75 15.75Z" stroke="white" stroke-width="1.5" stroke-linecap="round" stroke-linejoin="round"/>
<path d="M10.5 8.25H8.625C8.32663 8.25 8.04048 8.36853 7.8295 8.5795C7.61853 8.79048 7.5 9.07663 7.5 9.375C7.5 9.67337 7.61853 9.95952 7.8295 10.1705C8.04048 10.3815 8.32663 10.5 8.625 10.5H9.375C9.67337 10.5 9.95952 10.6185 10.1705 10.8295C10.3815 11.0405 10.5 11.3266 10.5 11.625C10.5 11.9234 10.3815 12.2095 10.1705 12.4205C9.95952 12.6315 9.67337 12.75 9.375 12.75H7.5" stroke="white" stroke-width="1.5" stroke-linecap="round" stroke-linejoin="round"/>
<path d="M9 12.75V13.5M9 7.5V8.25" stroke="white" stroke-width="1.5" stroke-linecap="round" stroke-linejoin="round"/>
</g>
<defs>
<clipPath id="clip0_1555_13167">
<rect width="18" height="18" fill="white"/>
</clipPath>
</defs>
</svg>
