<svg width="18" height="18" viewBox="0 0 18 18" fill="none" xmlns="http://www.w3.org/2000/svg">
<path d="M6.75 11.25L11.25 6.75" stroke="#1324EE" stroke-width="1.5" stroke-linecap="round" stroke-linejoin="round"/>
<path d="M7.125 7.5C7.33211 7.5 7.5 7.33211 7.5 7.125C7.5 6.91789 7.33211 6.75 7.125 6.75C6.91789 6.75 6.75 6.91789 6.75 7.125C6.75 7.33211 6.91789 7.5 7.125 7.5Z" fill="black" stroke="#1324EE" stroke-width="1.5" stroke-linecap="round" stroke-linejoin="round"/>
<path d="M10.875 11.25C11.0821 11.25 11.25 11.0821 11.25 10.875C11.25 10.6679 11.0821 10.5 10.875 10.5C10.6679 10.5 10.5 10.6679 10.5 10.875C10.5 11.0821 10.6679 11.25 10.875 11.25Z" fill="black" stroke="#1324EE" stroke-width="1.5" stroke-linecap="round" stroke-linejoin="round"/>
<path d="M3.75035 5.39998C3.75035 4.96237 3.92418 4.54269 4.23362 4.23325C4.54305 3.92382 4.96274 3.74998 5.40035 3.74998H6.15035C6.58602 3.74973 7.00391 3.57718 7.31285 3.26998L7.83785 2.74498C7.99118 2.59078 8.17349 2.46841 8.37428 2.38491C8.57507 2.30141 8.79038 2.25842 9.00785 2.25842C9.22531 2.25842 9.44062 2.30141 9.64141 2.38491C9.8422 2.46841 10.0245 2.59078 10.1778 2.74498L10.7028 3.26998C11.0118 3.57718 11.4297 3.74973 11.8653 3.74998H12.6153C13.053 3.74998 13.4726 3.92382 13.7821 4.23325C14.0915 4.54269 14.2653 4.96237 14.2653 5.39998V6.14998C14.2656 6.58565 14.4381 7.00355 14.7453 7.31248L15.2703 7.83748C15.4245 7.99081 15.5469 8.17312 15.6304 8.37391C15.7139 8.5747 15.7569 8.79002 15.7569 9.00748C15.7569 9.22494 15.7139 9.44026 15.6304 9.64105C15.5469 9.84184 15.4245 10.0241 15.2703 10.1775L14.7453 10.7025C14.4381 11.0114 14.2656 11.4293 14.2653 11.865V12.615C14.2653 13.0526 14.0915 13.4723 13.7821 13.7817C13.4726 14.0911 13.053 14.265 12.6153 14.265H11.8653C11.4297 14.2652 11.0118 14.4378 10.7028 14.745L10.1778 15.27C10.0245 15.4242 9.8422 15.5465 9.64141 15.63C9.44062 15.7135 9.22531 15.7565 9.00785 15.7565C8.79038 15.7565 8.57507 15.7135 8.37428 15.63C8.17349 15.5465 7.99118 15.4242 7.83785 15.27L7.31285 14.745C7.00391 14.4378 6.58602 14.2652 6.15035 14.265H5.40035C4.96274 14.265 4.54305 14.0911 4.23362 13.7817C3.92418 13.4723 3.75035 13.0526 3.75035 12.615V11.865C3.7501 11.4293 3.57755 11.0114 3.27035 10.7025L2.74535 10.1775C2.59115 10.0241 2.46878 9.84184 2.38528 9.64105C2.30178 9.44026 2.25879 9.22494 2.25879 9.00748C2.25879 8.79002 2.30178 8.5747 2.38528 8.37391C2.46878 8.17312 2.59115 7.99081 2.74535 7.83748L3.27035 7.31248C3.57755 7.00355 3.7501 6.58565 3.75035 6.14998V5.39998Z" stroke="#1324EE" stroke-width="1.5" stroke-linecap="round" stroke-linejoin="round"/>
</svg>
