<svg width="46" height="46" viewBox="0 0 46 46" fill="none" xmlns="http://www.w3.org/2000/svg">
<g clip-path="url(#clip0_1509_7989)">
<path d="M8.21793 29.1229C7.41385 27.1817 7 25.1012 7 23C7 20.8988 7.41385 18.8183 8.21793 16.8771C9.022 14.9359 10.2006 13.172 11.6863 11.6863C13.172 10.2006 14.9359 9.022 16.8771 8.21793C18.8183 7.41385 20.8988 7 23 7C25.1012 7 27.1817 7.41385 29.1229 8.21793C31.0641 9.022 32.828 10.2006 34.3137 11.6863C35.7994 13.172 36.978 14.9359 37.7821 16.8771C38.5862 18.8183 39 20.8988 39 23C39 25.1012 38.5862 27.1817 37.7821 29.1229C36.978 31.0641 35.7994 32.828 34.3137 34.3137C32.828 35.7994 31.0641 36.978 29.1229 37.7821C27.1817 38.5862 25.1012 39 23 39C20.8988 39 18.8183 38.5862 16.8771 37.7821C14.9359 36.978 13.172 35.7994 11.6863 34.3137C10.2006 32.828 9.022 31.0641 8.21793 29.1229Z" stroke="white" stroke-width="2.5"/>
<path d="M26.5787 18.6875C26.1072 17.7675 25.2217 17.2136 24.2787 17.25H21.7219C20.3112 17.25 19.167 18.5341 19.167 20.125C19.167 21.7101 20.3112 22.9981 21.7219 22.9981H24.2787C25.6894 22.9981 26.8337 24.2841 26.8337 25.8731C26.8337 27.4601 25.6894 28.7461 24.2787 28.7461H21.7219C20.7789 28.7826 19.8934 28.2286 19.4219 27.3086" stroke="white" stroke-width="2.5" stroke-linecap="round" stroke-linejoin="round"/>
<path d="M23 13.4167V17.2501" stroke="white" stroke-width="2.5" stroke-linecap="round" stroke-linejoin="round"/>
<path d="M23 28.75V32.5833" stroke="white" stroke-width="1.5" stroke-linecap="round" stroke-linejoin="round"/>
<path d="M11.5 11.5L14.375 14.375" stroke="white" stroke-width="2.5" stroke-linecap="round" stroke-linejoin="round"/>
<path d="M31.625 31.625L34.5 34.5" stroke="white" stroke-width="2.5" stroke-linecap="round" stroke-linejoin="round"/>
</g>
<defs>
<clipPath id="clip0_1509_7989">
<rect width="46" height="46" fill="white"/>
</clipPath>
</defs>
</svg>
