<svg width="40" height="40" viewBox="0 0 40 40" fill="none" xmlns="http://www.w3.org/2000/svg">
<path d="M35.0658 24.9224C34.1502 32.136 27.87 37.75 20.2153 37.75C11.9269 37.75 5.25 31.168 5.25 23.1C5.25 22.6349 5.27223 22.1751 5.3156 21.7214C6.15939 22.5069 7.30863 23.4265 8.77604 24.2802L10.9464 25.5429L10.6457 23.051L10.6457 23.0507L10.6457 23.0503L10.6456 23.05L10.6449 23.0435L10.6411 23.0091C10.6376 22.9771 10.6324 22.927 10.6262 22.86C10.6136 22.726 10.5965 22.5245 10.58 22.2642C10.5468 21.7432 10.5154 20.9887 10.5247 20.0701C10.5433 18.2276 10.7249 15.7531 11.3672 13.1912C12.524 8.57646 15.1163 3.83283 20.8416 1.78947C19.565 7.99894 20.7314 12.4582 23.2014 14.5638C24.6138 15.7679 26.4011 16.1215 28.099 15.494C29.207 15.0845 30.1982 14.2891 31.0077 13.1771C32.5315 15.8478 32.6766 18.2573 32.4143 20.0752C32.2549 21.18 31.9415 22.0831 31.6705 22.7053C31.5354 23.0155 31.412 23.2531 31.3259 23.4076C31.2829 23.4848 31.2495 23.541 31.2287 23.5749C31.2183 23.5919 31.2112 23.6032 31.2076 23.6088C31.2068 23.61 31.2062 23.6109 31.2058 23.6116C31.2054 23.6122 31.2051 23.6126 31.2051 23.6127C31.205 23.6128 31.205 23.6128 31.205 23.6128L30.1099 25.2602L32.0743 25.5377C33.227 25.7005 34.2584 25.3621 35.0658 24.9224Z" stroke="white" stroke-width="2.5"/>
<path d="M13.1035 32.0269C13.1035 35.878 16.2874 39 20.2149 39C24.1424 39 27.3263 35.878 27.3263 32.0269C27.3263 29.9656 26.4142 28.1132 24.9641 26.8367C22.2146 30.4994 18.2965 24.9434 21.35 20.886C21.35 20.886 13.1035 21.8993 13.1035 32.0269Z" fill="white"/>
</svg>
