<svg width="271" height="156" viewBox="0 0 271 156" fill="none" xmlns="http://www.w3.org/2000/svg">
<path d="M652.837 235.938C618.992 223.59 596.637 225.667 562.095 208.321C527.552 190.975 537.236 181.882 502.093 166.198C466.949 150.514 460.429 163.412 420.818 145.148C384.903 128.588 419.531 133.438 366.824 105.083C314.118 76.7289 296.147 91.1713 256.803 70.1455C222.474 51.799 232.427 43.9506 179.106 17.7466C125.786 -8.45745 143.6 14.3565 106.109 -2.375C68.6178 -19.1065 75.3874 -30.4591 40.2798 -45.4792C5.17224 -60.4992 0.907048 -56.5508 -29.5974 -68.0446C-60.1019 -79.5384 -83.9493 -99.2737 -121.925 -117.22" stroke="url(#paint0_linear_1645_17522)" stroke-width="0.383734"/>
<path d="M636.872 241.95C603.664 228.258 581.268 229.48 547.59 210.747C513.911 192.015 523.984 183.267 489.631 166.179C455.279 149.091 448.191 161.777 409.497 141.929C374.414 123.933 408.743 130.133 357.44 99.6567C306.138 69.1809 287.556 82.9764 249.255 60.3676C215.835 40.6399 226.119 33.1502 174.107 4.8081C122.095 -23.5341 138.837 0.0387826 102.189 -18.1907C65.5417 -36.4202 72.8087 -47.5479 38.4618 -63.9686C4.1149 -80.3894 -0.318915 -76.5929 -30.2328 -89.2988C-60.1467 -102.005 -83.0466 -122.722 -120.123 -142.189" stroke="url(#paint1_linear_1645_17522)" stroke-width="0.383735"/>
<path d="M620.907 247.979C588.39 232.975 565.983 233.342 533.225 213.265C500.467 193.188 510.916 184.801 477.41 166.347C443.904 147.894 436.254 160.345 398.542 138.957C364.348 119.564 398.324 127.098 348.511 94.5686C298.699 62.0392 279.528 75.1618 242.332 51.0203C209.876 29.9552 220.48 22.8384 169.862 -7.57838C119.243 -37.9952 134.88 -13.7133 99.1359 -33.3996C63.3914 -53.0859 71.1488 -63.9668 37.6182 -81.751C4.08748 -99.5353 -0.509604 -95.8978 -29.7851 -109.787C-59.0606 -123.676 -80.9726 -145.329 -117.089 -166.273" stroke="url(#paint2_linear_1645_17522)" stroke-width="0.383735"/>
<path d="M604.934 254.032C573.157 237.75 550.774 237.263 518.989 215.886C487.203 194.508 498.017 186.498 465.411 166.72C432.805 146.942 424.602 159.133 387.931 136.252C354.681 115.506 388.254 124.355 340.012 89.8428C291.771 55.331 272.035 67.7554 236.006 42.134C204.568 19.7776 215.477 13.0474 166.335 -19.3772C117.193 -51.8018 131.695 -26.8622 96.9112 -47.9618C62.1273 -69.0614 70.3672 -79.6737 37.7065 -98.782C5.04585 -117.89 0.290997 -114.419 -28.2996 -129.46C-56.8903 -144.501 -77.7763 -167.045 -112.874 -189.419" stroke="url(#paint3_linear_1645_17522)" stroke-width="0.383735"/>
<path d="M588.954 260.107C557.969 242.582 535.64 241.244 504.88 218.612C474.119 195.981 485.283 188.364 453.63 167.304C421.977 146.244 413.227 158.15 377.656 133.826C345.405 111.771 378.524 121.915 331.932 85.495C285.339 49.0752 265.064 60.7769 230.26 33.7308C199.89 10.1313 211.092 3.80093 163.505 -30.5613C115.918 -64.9235 129.258 -39.3785 95.4902 -61.8456C61.7225 -84.3127 70.4359 -94.6352 38.6971 -115.026C6.95836 -135.417 2.05168 -132.118 -25.8091 -148.278C-53.6698 -164.438 -73.4939 -187.825 -107.517 -211.582" stroke="url(#paint4_linear_1645_17522)" stroke-width="0.383733"/>
<path d="M572.964 266.205C542.819 247.475 520.577 245.289 490.89 221.452C461.203 197.614 472.703 190.406 442.053 168.109C411.402 145.812 402.116 157.408 367.702 131.693C336.5 108.378 369.115 119.794 324.247 81.5432C279.379 43.2929 258.59 54.2483 225.067 25.835C195.815 1.04259 207.294 -4.87524 161.338 -41.1019C115.382 -77.3287 127.535 -51.232 94.8364 -75.0186C62.1381 -98.8052 71.3151 -108.817 40.5482 -130.446C9.78131 -152.076 4.72891 -148.957 -22.3585 -166.202C-49.446 -183.446 -68.1744 -207.626 -101.068 -232.714" stroke="url(#paint5_linear_1645_17522)" stroke-width="0.383735"/>
<path d="M556.969 272.322C527.709 252.426 505.586 249.397 477.02 224.403C448.453 199.41 460.276 192.626 430.675 169.139C401.075 145.652 391.264 156.915 358.06 129.862C327.955 105.334 360.019 117.998 316.947 77.9978C273.874 37.9973 252.599 48.1837 220.409 18.463C192.321 -7.47031 204.063 -12.9633 159.81 -50.9784C115.558 -88.9935 126.501 -62.3997 94.9229 -87.4558C63.3452 -112.512 72.9751 -122.191 43.2279 -145.015C13.4808 -167.838 8.28911 -164.906 -17.9832 -183.198C-44.2555 -201.49 -61.8567 -226.413 -93.57 -252.78" stroke="url(#paint6_linear_1645_17522)" stroke-width="0.383735"/>
<path d="M540.966 278.458C512.637 257.438 490.664 253.572 463.263 227.474C435.861 201.377 447.99 195.031 419.486 170.403C390.982 145.774 380.656 156.679 348.715 128.346C319.755 102.656 351.22 116.543 310.01 74.8753C268.801 33.2076 247.067 42.6033 216.261 11.6369C189.382 -15.3834 201.371 -20.4399 158.891 -60.1645C116.41 -99.889 126.123 -72.8537 95.7147 -99.1274C65.3063 -125.401 75.3771 -134.728 46.6956 -158.698C18.0141 -182.667 12.69 -179.927 -12.7271 -199.229C-38.1441 -218.532 -54.589 -244.145 -85.0725 -271.736" stroke="url(#paint7_linear_1645_17522)" stroke-width="0.383735"/>
<path d="M524.952 284.615C497.596 262.513 475.805 257.817 449.61 230.669C423.416 203.522 435.836 197.628 408.471 171.909C381.107 146.189 370.28 156.714 339.65 127.157C311.878 100.359 342.698 115.44 303.416 72.191C264.133 28.9418 241.97 37.5261 212.596 5.37759C186.966 -22.6741 199.187 -27.283 158.544 -68.6354C117.901 -109.988 126.366 -82.5673 97.1739 -110.005C67.9812 -137.442 78.4804 -146.397 50.9082 -171.463C23.336 -196.53 17.8864 -193.988 -6.63697 -214.261C-31.1604 -234.535 -46.4221 -260.786 -75.629 -289.544" stroke="url(#paint8_linear_1645_17522)" stroke-width="0.383735"/>
<path d="M508.928 290.792C482.586 267.652 461.008 262.135 436.06 233.992C411.113 205.849 423.806 200.42 397.623 173.662C371.439 146.904 360.126 157.025 330.853 126.305C304.311 98.4526 334.441 114.699 297.146 69.9563C259.85 25.2137 237.287 32.9669 209.391 -0.298215C185.049 -29.3243 197.484 -33.4748 158.741 -76.3711C119.997 -119.267 127.2 -91.5188 99.2669 -120.064C71.334 -148.61 82.2479 -157.173 55.8264 -183.286C29.4049 -209.398 23.8372 -207.061 0.244111 -228.264C-23.349 -249.467 -37.4032 -276.302 -65.2895 -306.17" stroke="url(#paint9_linear_1645_17522)" stroke-width="0.383735"/>
<path d="M492.889 296.988C467.6 272.857 446.266 266.527 422.602 237.446C398.939 208.364 411.889 203.414 386.925 175.671C361.961 147.927 350.176 157.622 322.303 125.801C297.032 96.9497 326.429 114.33 291.176 68.1843C255.923 22.0387 232.991 28.9423 206.614 -5.37233C183.597 -35.3141 196.23 -38.9964 159.444 -83.3503C122.657 -127.704 128.585 -99.6852 101.953 -129.282C75.3213 -158.878 86.6354 -167.03 61.4037 -194.137C36.1721 -221.243 30.4939 -219.116 7.86585 -241.207C-14.7622 -263.298 -27.5869 -290.661 -54.1111 -321.578" stroke="url(#paint10_linear_1645_17522)" stroke-width="0.383735"/>
<path d="M476.842 303.202C452.643 278.128 431.581 270.996 409.237 241.034C386.892 211.072 400.081 206.612 376.374 177.938C352.666 149.265 340.424 158.511 313.993 125.652C290.028 95.8598 318.65 114.341 285.492 66.885C252.334 19.4287 229.065 25.465 204.245 -9.83038C182.587 -40.628 195.4 -43.8326 160.625 -89.5558C125.849 -135.279 130.492 -107.047 105.2 -137.636C79.9085 -168.225 91.6074 -175.947 67.6024 -203.994C43.5974 -232.041 37.8164 -230.129 16.1863 -253.064C-5.44383 -275.999 -17.0197 -303.835 -42.1428 -335.74" stroke="url(#paint11_linear_1645_17522)" stroke-width="0.383735"/>
<path d="M460.78 309.436C437.705 283.467 416.946 275.545 395.953 244.761C374.959 213.978 388.369 210.019 365.951 180.472C343.533 150.925 330.852 159.702 305.901 125.87C283.278 95.1946 311.083 114.743 280.068 66.0705C249.052 17.3977 225.478 22.5506 202.251 -13.6556C181.984 -45.2479 194.959 -47.9661 162.244 -94.9681C129.53 -141.97 132.88 -113.585 108.965 -145.106C85.0498 -176.627 97.1172 -183.901 74.3733 -212.833C51.6293 -241.766 45.7537 -240.073 25.1524 -263.808C4.55113 -287.543 -5.75887 -315.795 -29.445 -348.624" stroke="url(#paint12_linear_1645_17522)" stroke-width="0.383735"/>
<path d="M444.702 315.686C422.784 288.872 402.358 280.173 382.745 248.629C363.132 217.084 376.743 213.638 355.647 183.275C334.551 152.911 321.448 161.198 298.011 126.459C276.761 94.9607 303.711 115.541 274.882 65.7474C246.052 15.9541 222.207 20.2085 200.606 -16.8371C181.757 -49.1618 194.876 -51.3856 164.268 -99.5744C133.66 -147.763 135.714 -119.282 113.209 -151.674C90.7033 -184.066 103.122 -190.875 81.6713 -220.637C60.2203 -250.398 54.2583 -248.93 34.7149 -273.419C15.1714 -297.907 6.14158 -326.518 -16.0743 -360.208" stroke="url(#paint13_linear_1645_17522)" stroke-width="0.383734"/>
<path d="M428.609 321.956C407.878 294.348 387.813 284.885 369.607 252.642C351.401 220.398 365.194 217.474 345.449 186.353C325.703 155.232 312.198 163.009 290.308 127.43C270.46 95.1699 296.517 116.744 269.913 65.9277C243.308 15.1113 219.226 18.4533 199.28 -19.3592C181.876 -52.3531 195.12 -54.0752 166.66 -103.357C138.201 -152.639 138.956 -124.121 117.892 -157.321C96.8272 -190.521 109.58 -196.848 89.4512 -227.382C69.3227 -257.915 63.2828 -256.676 44.8241 -281.871C26.3653 -307.067 18.6276 -335.979 -2.08764 -370.464" stroke="url(#paint14_linear_1645_17522)" stroke-width="0.383735"/>
<path d="M412.502 328.242C392.985 299.892 373.31 289.68 356.535 256.799C339.76 223.919 353.715 221.526 335.347 189.708C316.978 157.889 303.091 165.137 282.776 128.785C264.356 95.826 289.485 118.356 265.141 66.6152C240.796 14.8745 216.511 17.2916 198.247 -21.2144C182.31 -54.8135 195.66 -56.0271 169.387 -106.307C143.114 -156.586 142.571 -128.091 122.975 -162.035C103.38 -195.979 116.447 -201.809 97.6679 -233.056C78.8887 -264.303 72.7797 -263.296 55.4306 -289.151C38.0814 -315.006 31.645 -344.162 12.4579 -379.376" stroke="url(#paint15_linear_1645_17522)" stroke-width="0.383734"/>
<path d="M396.377 334.544C378.1 305.505 358.842 294.561 343.52 261.106C328.198 227.651 342.294 225.799 325.326 193.343C308.358 160.887 294.109 167.587 275.396 130.533C258.429 96.9372 282.595 120.383 260.541 67.818C238.487 15.2528 214.035 16.7338 197.474 -22.3914C183.025 -56.5308 196.461 -57.23 172.408 -108.411C148.355 -159.592 146.518 -131.178 128.416 -165.802C110.315 -200.426 123.678 -205.742 106.272 -237.643C88.8666 -269.545 82.6975 -268.774 66.4807 -295.24C50.2639 -321.705 45.1355 -351.047 27.5012 -386.922" stroke="url(#paint16_linear_1645_17522)" stroke-width="0.383735"/>
<path d="M380.233 340.861C363.221 311.187 344.406 299.527 330.555 265.562C316.704 231.597 330.922 230.293 315.375 197.261C299.829 164.229 285.24 170.364 268.151 132.678C252.657 98.5083 275.827 122.829 256.09 69.5405C236.353 16.2517 211.77 16.7866 196.934 -22.8829C183.988 -57.4972 197.492 -57.6768 175.688 -109.662C153.884 -161.647 150.758 -133.372 134.173 -168.61C117.588 -203.849 131.226 -208.637 115.216 -241.133C99.2062 -273.628 92.9861 -273.097 77.9223 -300.124C62.8585 -327.152 59.0422 -356.62 42.9823 -393.089" stroke="url(#paint17_linear_1645_17522)" stroke-width="0.383735"/>
<path d="M364.074 347.193C348.346 316.939 330.001 304.581 317.637 270.17C305.273 235.76 319.59 235.01 305.484 201.464C291.378 167.918 276.471 173.47 261.027 135.223C247.024 100.545 269.168 125.699 251.77 71.788C234.371 17.877 209.693 17.4573 196.597 -22.6809C185.17 -57.7042 198.721 -57.3597 179.191 -110.051C159.661 -162.742 155.255 -134.663 140.206 -170.45C125.158 -206.237 139.051 -210.484 124.455 -243.513C109.86 -276.542 103.598 -276.253 89.7057 -303.792C75.8135 -331.331 73.3108 -360.868 58.844 -397.862" stroke="url(#paint18_linear_1645_17522)" stroke-width="0.383735"/>
<path d="M347.893 353.538C333.468 322.76 315.619 309.722 304.755 274.931C293.891 240.139 308.286 239.95 295.635 205.952C282.985 171.955 267.784 176.909 254.002 138.172C241.506 103.05 262.594 128.994 247.551 74.5625C232.508 20.1314 207.773 18.7501 196.431 -21.7809C186.534 -57.1469 200.111 -56.2746 182.876 -109.572C165.64 -162.87 159.966 -135.047 146.47 -171.315C132.975 -207.584 147.1 -211.276 133.936 -244.777C120.772 -278.278 114.478 -278.235 101.773 -306.235C89.069 -334.234 87.8789 -363.782 75.0209 -401.232" stroke="url(#paint19_linear_1645_17522)" stroke-width="0.383735"/>
<path d="M331.693 359.899C318.588 328.652 301.26 314.955 291.905 279.847C282.551 244.739 297.002 245.116 285.82 210.73C274.639 176.344 259.167 180.686 247.061 141.53C236.084 106.029 256.089 132.719 243.415 77.8698C230.742 23.0212 205.985 20.6724 196.407 -20.175C188.049 -55.8172 201.632 -54.4143 186.708 -108.219C171.784 -162.025 164.854 -134.513 152.925 -171.196C140.997 -207.879 155.333 -211.004 143.614 -244.916C131.895 -278.828 125.578 -279.032 114.076 -307.442C102.574 -335.851 102.693 -365.352 91.456 -403.187" stroke="url(#paint20_linear_1645_17522)" stroke-width="0.383735"/>
<path d="M315.472 366.27C303.702 334.611 286.917 320.275 279.081 284.916C271.244 249.558 285.728 250.505 276.026 215.794C266.323 181.082 250.606 184.796 240.186 145.295C230.739 109.48 249.635 136.871 239.338 81.7068C229.042 26.5431 204.303 23.2227 196.495 -17.8649C189.681 -53.7165 203.25 -51.7809 190.649 -105.994C178.048 -160.206 169.88 -133.062 159.529 -170.093C149.178 -207.123 163.703 -209.671 153.44 -243.931C143.177 -278.191 136.847 -278.645 126.559 -307.413C116.271 -336.181 117.693 -365.576 108.087 -403.727" stroke="url(#paint21_linear_1645_17522)" stroke-width="0.383735"/>
<path d="M299.231 372.654C288.805 340.64 272.589 325.685 266.274 290.141C259.959 254.597 274.454 256.119 266.238 221.145C258.023 186.171 242.085 189.246 233.36 149.471C225.448 113.407 243.212 141.453 235.297 86.0771C227.382 30.701 202.699 26.4063 196.663 -14.8451C191.397 -50.8397 204.93 -48.3701 194.661 -102.891C184.391 -157.411 175.003 -130.69 166.238 -168C157.474 -205.31 172.162 -207.27 163.364 -241.816C154.566 -276.362 148.233 -277.067 139.169 -306.141C130.105 -335.216 132.821 -364.45 124.854 -402.847" stroke="url(#paint22_linear_1645_17522)" stroke-width="0.383735"/>
<path d="M282.967 379.049C273.896 346.736 258.269 331.186 253.478 295.522C248.687 259.858 263.17 261.956 256.446 226.783C249.722 191.611 233.591 194.033 226.564 154.057C220.193 117.812 236.803 146.466 231.268 90.9797C225.734 35.4936 201.145 30.2232 196.883 -11.1157C193.164 -47.1867 206.64 -44.1826 198.706 -98.9109C190.771 -153.639 180.184 -127.396 173.011 -164.918C165.838 -202.44 180.667 -203.802 173.34 -238.572C166.013 -273.342 159.686 -274.298 151.854 -303.628C144.022 -332.958 148.02 -361.972 141.694 -400.545" stroke="url(#paint23_linear_1645_17522)" stroke-width="0.383733"/>
<path d="M266.681 385.457C258.972 352.903 243.956 336.78 240.688 301.061C237.419 265.342 251.868 268.018 246.638 232.71C241.407 197.402 225.109 199.162 219.783 159.057C214.953 122.694 230.389 151.91 227.231 96.4154C224.073 40.9211 199.617 34.6753 197.124 -6.67535C194.949 -42.7566 208.348 -39.2184 202.748 -94.055C197.147 -148.892 185.385 -123.179 179.806 -160.846C174.226 -198.513 189.171 -199.268 183.318 -234.2C177.465 -269.131 171.156 -270.34 164.561 -299.873C157.965 -329.406 163.233 -358.145 158.55 -396.824" stroke="url(#paint24_linear_1645_17522)" stroke-width="0.383735"/>
<path d="M250.375 391.866C244.031 359.128 229.648 342.457 227.898 306.747C226.148 271.037 240.539 274.293 236.802 238.913C233.065 203.533 216.627 204.62 212.999 164.458C209.71 128.044 223.954 157.772 223.163 102.371C222.372 46.9704 198.087 39.7511 197.358 -1.53571C196.722 -37.5613 210.022 -33.4901 206.751 -88.3358C203.48 -143.182 190.569 -118.052 186.582 -155.796C182.596 -193.54 197.632 -193.682 193.254 -228.713C188.876 -263.743 182.594 -265.205 177.239 -294.889C171.884 -324.573 178.405 -352.982 175.361 -391.697" stroke="url(#paint25_linear_1645_17522)" stroke-width="0.383734"/>
<path d="M234.045 398.288C229.068 365.421 215.337 348.227 215.099 312.591C214.861 276.955 229.171 280.79 226.925 245.4C224.678 210.011 208.128 210.417 206.194 170.27C204.441 133.869 217.477 164.063 219.04 108.855C220.603 53.6482 196.528 45.4587 197.552 4.31048C198.446 -31.5941 211.626 -26.992 210.675 -81.7483C209.724 -136.505 195.693 -112.009 193.296 -149.763C190.899 -187.517 206.002 -187.039 203.097 -222.107C200.191 -257.175 193.946 -258.889 189.833 -288.672C185.719 -318.455 193.475 -346.48 192.066 -385.162" stroke="url(#paint26_linear_1645_17522)" stroke-width="0.383734"/>
<path d="M217.69 404.718C214.08 371.781 201.019 354.087 202.285 318.589C203.55 283.091 217.756 287.504 216.993 252.168C216.231 216.832 199.598 216.549 199.35 176.488C199.126 140.165 210.94 170.775 214.839 115.861C218.738 60.9471 194.913 51.7922 197.678 10.8569C200.09 -24.8619 213.129 -19.7319 214.485 -74.3009C215.841 -128.87 200.719 -105.059 199.906 -142.755C199.093 -180.452 214.236 -179.35 212.799 -214.393C211.362 -249.436 205.164 -251.402 202.291 -281.233C199.418 -311.064 208.387 -338.65 208.605 -377.231" stroke="url(#paint27_linear_1645_17522)" stroke-width="0.383735"/>
<path d="M201.312 411.152C199.067 378.202 186.694 360.036 189.45 324.738C192.206 289.441 206.284 294.43 206.998 259.209C207.712 223.988 191.024 223.011 192.453 183.106C193.748 146.925 204.328 177.902 210.541 123.38C216.754 68.8581 193.217 58.7443 197.706 18.0952C201.623 -17.3738 214.499 -11.7195 218.145 -66.0044C221.791 -120.289 205.612 -97.21 206.374 -134.784C207.135 -172.358 222.293 -170.626 222.317 -205.584C222.341 -240.541 216.2 -242.758 214.565 -272.585C212.929 -302.411 223.089 -329.508 224.923 -367.919" stroke="url(#paint28_linear_1645_17522)" stroke-width="0.383735"/>
<path d="M184.908 417.595C184.022 384.687 172.354 366.075 176.587 331.04C180.819 296.006 194.746 301.569 196.925 266.524C199.104 231.48 182.39 229.803 185.481 190.125C188.284 154.149 197.62 185.443 206.121 131.41C214.623 77.3773 191.412 66.3126 197.606 26.0222C203.012 -9.13396 215.704 -2.95994 221.618 -56.8651C227.532 -110.77 210.331 -88.4696 212.655 -125.855C214.98 -163.24 230.126 -160.877 231.601 -195.687C233.077 -230.498 227.004 -232.965 226.6 -262.736C226.196 -292.508 237.521 -319.063 240.957 -357.237" stroke="url(#paint29_linear_1645_17522)" stroke-width="0.383734"/>
<path d="M168.479 424.04C168.945 391.23 157.998 372.198 163.69 337.488C169.382 302.779 183.134 308.91 186.764 274.104C190.395 239.297 173.685 236.916 178.422 197.533C182.717 161.825 190.8 193.387 201.56 139.939C212.32 86.4906 189.474 74.4845 197.352 34.6239C204.226 -0.157089 216.714 6.53115 224.87 -46.8999C233.027 -100.331 214.841 -78.8537 218.714 -115.986C222.587 -153.118 237.695 -150.12 240.609 -184.724C243.524 -219.328 237.529 -222.043 238.349 -251.709C239.169 -281.375 251.632 -307.338 256.654 -345.208" stroke="url(#paint30_linear_1645_17522)" stroke-width="0.383735"/>
<path d="M152.028 430.486C153.836 397.83 143.625 378.407 150.756 344.082C157.888 309.758 171.441 316.454 176.507 281.945C181.573 247.436 164.898 244.348 171.261 205.329C177.031 169.95 183.856 201.73 196.84 148.96C209.824 96.1912 187.381 83.255 196.917 43.8944C205.238 9.54964 217.5 16.7458 227.87 -36.118C238.241 -88.9818 219.108 -68.3715 224.512 -105.186C229.917 -142.001 244.96 -138.368 249.299 -172.706C253.638 -207.045 247.731 -210.006 249.766 -239.515C251.802 -269.025 265.372 -294.349 271.96 -331.849" stroke="url(#paint31_linear_1645_17522)" stroke-width="0.383735"/>
<path d="M135.557 436.932C138.694 404.484 129.233 384.697 137.781 350.818C146.33 316.938 159.662 324.193 166.145 290.039C172.628 255.886 156.016 252.091 163.984 213.502C171.209 178.514 176.771 210.461 191.941 158.463C207.111 106.465 185.11 92.611 196.277 53.819C206.02 19.9704 218.035 27.6673 230.586 -24.5381C243.136 -76.7435 223.098 -57.0414 230.014 -93.4761C236.931 -129.911 251.882 -125.643 257.628 -159.657C263.375 -193.671 257.566 -196.875 260.805 -226.179C264.043 -255.483 278.69 -280.12 286.821 -317.187" stroke="url(#paint32_linear_1645_17522)" stroke-width="0.383735"/>
<path d="M119.054 443.382C123.507 411.196 114.808 391.075 124.749 357.698C134.689 324.322 147.777 332.128 155.656 298.389C163.536 264.65 147.017 260.147 156.565 222.054C165.222 187.516 169.52 219.581 186.834 168.444C204.149 117.307 182.627 102.55 195.393 64.3944C206.531 31.1007 218.28 39.2903 232.974 -12.1669C247.668 -63.6242 226.766 -44.87 235.172 -80.8626C243.578 -116.855 258.41 -111.954 265.545 -145.586C272.679 -179.218 266.979 -182.663 271.407 -211.712C275.835 -240.762 291.525 -264.667 301.175 -301.236" stroke="url(#paint33_linear_1645_17522)" stroke-width="0.383735"/>
<path d="M102.52 449.836C108.273 417.965 100.348 397.538 111.654 364.721C122.96 331.905 135.78 340.255 145.032 306.987C154.285 273.72 137.89 268.51 148.991 230.977C159.055 196.947 162.088 229.081 181.501 178.893C200.914 128.705 179.909 113.061 194.24 75.6068C206.745 42.9252 218.206 51.5988 235.003 0.977256C251.8 -49.6443 230.08 -31.8754 239.95 -67.3655C249.821 -102.856 264.507 -97.3227 273.008 -130.517C281.509 -163.711 275.927 -167.393 281.529 -196.14C287.131 -224.887 303.827 -248.015 314.97 -284.025" stroke="url(#paint34_linear_1645_17522)" stroke-width="0.383735"/>
<path d="M85.9633 456.284C92.9969 424.78 85.8559 404.077 98.498 371.876C111.14 339.675 123.67 348.56 134.27 315.819C144.869 283.078 128.63 277.165 141.252 240.255C152.696 206.79 154.466 238.943 175.929 189.79C197.392 140.637 176.94 124.123 192.8 87.4343C206.64 55.4207 217.794 64.5684 236.649 14.8681C255.505 -34.8323 233.012 -18.0843 244.32 -53.0125C255.628 -87.9408 270.141 -81.7802 279.984 -114.481C289.827 -147.182 284.373 -151.096 291.132 -179.494C297.891 -207.892 315.557 -230.201 328.161 -265.592" stroke="url(#paint35_linear_1645_17522)" stroke-width="0.383735"/>
<path d="M69.3858 462.73C77.6797 431.645 71.3323 410.695 85.2788 379.164C99.2252 347.632 111.443 357.044 123.362 324.884C135.281 292.723 119.226 286.11 133.338 249.885C146.133 217.041 146.642 249.163 170.103 201.129C193.563 153.094 173.701 135.729 191.051 99.8678C206.191 68.5764 217.018 78.1878 237.885 29.4921C258.752 -19.2037 235.534 -3.50996 248.249 -37.8184C260.965 -72.1269 275.279 -65.3436 286.437 -97.4974C297.596 -129.651 292.28 -133.794 300.176 -161.796C308.073 -189.797 326.668 -211.248 340.702 -245.959" stroke="url(#paint36_linear_1645_17522)" stroke-width="0.383735"/>
<path d="M52.7818 469.173C62.3134 438.557 56.7679 417.39 71.9848 386.581C87.2017 355.772 99.0843 365.698 112.293 334.172C125.502 302.646 109.662 295.337 125.228 259.857C139.342 227.688 138.597 259.731 163.999 212.895C189.401 166.06 170.163 147.864 188.963 112.891C205.367 82.3739 215.848 92.4376 238.675 44.8273C261.502 -2.78296 237.607 11.8254 251.698 -21.8069C265.79 -55.4392 279.877 -48.039 292.323 -79.5929C304.769 -111.147 299.601 -115.513 308.613 -143.074C317.626 -170.634 337.11 -191.188 352.539 -225.163" stroke="url(#paint37_linear_1645_17522)" stroke-width="0.383735"/>
<path d="M36.1494 475.611C46.8941 445.513 42.1576 424.16 58.609 394.124C75.0605 364.088 86.5864 374.518 101.053 343.677C115.519 312.836 99.9241 304.839 116.907 270.161C132.306 238.72 130.314 270.635 157.598 225.076C184.882 179.518 166.305 160.514 186.51 126.486C204.14 96.795 214.255 107.299 238.988 60.8526C263.722 14.4062 239.201 27.9002 254.633 -5.00107C270.066 -37.9023 283.901 -29.8924 297.603 -60.7952C311.306 -91.6979 306.294 -96.2833 316.4 -123.358C326.505 -150.433 346.836 -170.052 363.623 -203.235" stroke="url(#paint38_linear_1645_17522)" stroke-width="0.383735"/>
<path d="M19.4985 482.043C31.4298 452.51 27.5083 431.002 45.1562 401.788C62.8042 372.575 73.9521 383.495 89.6417 353.39C105.331 323.284 90.0118 314.606 108.372 280.787C125.019 250.124 121.789 281.863 150.893 237.657C179.998 193.451 162.114 173.661 183.678 140.636C202.495 111.819 212.226 122.75 238.808 77.5439C265.39 32.3374 240.294 44.6904 257.032 12.5733C273.769 -19.5438 287.325 -10.9324 302.251 -41.1343C317.178 -71.3361 312.333 -76.1348 323.507 -102.681C334.681 -129.228 355.814 -147.878 373.92 -180.215" stroke="url(#paint39_linear_1645_17522)" stroke-width="0.383735"/>
<path d="M2.81849 488.469C15.908 459.548 12.8063 437.915 31.6109 409.571C50.4156 381.228 61.1644 392.626 78.0412 363.303C94.9181 333.98 79.9036 324.631 99.5991 291.725C117.457 261.89 113 293.405 143.859 250.624C174.718 207.842 157.562 187.292 180.437 155.323C200.397 127.428 209.725 138.772 238.096 94.8787C266.467 50.985 240.849 62.1726 258.853 30.8912C276.857 -0.390318 290.107 8.8131 306.223 -20.6398C322.339 -50.0927 317.67 -55.0988 329.885 -81.0751C342.101 -107.051 363.991 -124.7 383.375 -156.139" stroke="url(#paint40_linear_1645_17522)" stroke-width="0.383735"/>
<defs>
<linearGradient id="paint0_linear_1645_17522" x1="259.208" y1="73.3577" x2="267.081" y2="55.7163" gradientUnits="userSpaceOnUse">
<stop stop-color="white" stop-opacity="0"/>
<stop offset="0.272124" stop-color="white" stop-opacity="0.34"/>
<stop offset="1" stop-color="white"/>
</linearGradient>
<linearGradient id="paint1_linear_1645_17522" x1="251.509" y1="63.6827" x2="260.161" y2="46.2888" gradientUnits="userSpaceOnUse">
<stop stop-color="white" stop-opacity="0"/>
<stop offset="0.272124" stop-color="white" stop-opacity="0.34"/>
<stop offset="1" stop-color="white"/>
</linearGradient>
<linearGradient id="paint2_linear_1645_17522" x1="244.431" y1="54.4312" x2="253.855" y2="37.3194" gradientUnits="userSpaceOnUse">
<stop stop-color="white" stop-opacity="0"/>
<stop offset="0.272124" stop-color="white" stop-opacity="0.34"/>
<stop offset="1" stop-color="white"/>
</linearGradient>
<linearGradient id="paint3_linear_1645_17522" x1="237.946" y1="45.6336" x2="248.134" y2="28.8381" gradientUnits="userSpaceOnUse">
<stop stop-color="white" stop-opacity="0"/>
<stop offset="0.272124" stop-color="white" stop-opacity="0.34"/>
<stop offset="1" stop-color="white"/>
</linearGradient>
<linearGradient id="paint4_linear_1645_17522" x1="232.036" y1="37.3118" x2="242.978" y2="20.8668" gradientUnits="userSpaceOnUse">
<stop stop-color="white" stop-opacity="0"/>
<stop offset="0.272124" stop-color="white" stop-opacity="0.34"/>
<stop offset="1" stop-color="white"/>
</linearGradient>
<linearGradient id="paint5_linear_1645_17522" x1="226.677" y1="29.4898" x2="238.361" y2="13.429" gradientUnits="userSpaceOnUse">
<stop stop-color="white" stop-opacity="0"/>
<stop offset="0.272124" stop-color="white" stop-opacity="0.34"/>
<stop offset="1" stop-color="white"/>
</linearGradient>
<linearGradient id="paint6_linear_1645_17522" x1="221.85" y1="22.184" x2="234.263" y2="6.54084" gradientUnits="userSpaceOnUse">
<stop stop-color="white" stop-opacity="0"/>
<stop offset="0.272124" stop-color="white" stop-opacity="0.34"/>
<stop offset="1" stop-color="white"/>
</linearGradient>
<linearGradient id="paint7_linear_1645_17522" x1="217.531" y1="15.4162" x2="230.657" y2="0.223768" gradientUnits="userSpaceOnUse">
<stop stop-color="white" stop-opacity="0"/>
<stop offset="0.272124" stop-color="white" stop-opacity="0.34"/>
<stop offset="1" stop-color="white"/>
</linearGradient>
<linearGradient id="paint8_linear_1645_17522" x1="213.691" y1="9.20745" x2="227.516" y2="-5.50178" gradientUnits="userSpaceOnUse">
<stop stop-color="white" stop-opacity="0"/>
<stop offset="0.272124" stop-color="white" stop-opacity="0.34"/>
<stop offset="1" stop-color="white"/>
</linearGradient>
<linearGradient id="paint9_linear_1645_17522" x1="210.309" y1="3.57416" x2="224.814" y2="-10.6199" gradientUnits="userSpaceOnUse">
<stop stop-color="white" stop-opacity="0"/>
<stop offset="0.272124" stop-color="white" stop-opacity="0.34"/>
<stop offset="1" stop-color="white"/>
</linearGradient>
<linearGradient id="paint10_linear_1645_17522" x1="207.354" y1="-1.46549" x2="222.521" y2="-15.1131" gradientUnits="userSpaceOnUse">
<stop stop-color="white" stop-opacity="0"/>
<stop offset="0.272124" stop-color="white" stop-opacity="0.34"/>
<stop offset="1" stop-color="white"/>
</linearGradient>
<linearGradient id="paint11_linear_1645_17522" x1="204.806" y1="-5.89718" x2="220.614" y2="-18.9677" gradientUnits="userSpaceOnUse">
<stop stop-color="white" stop-opacity="0"/>
<stop offset="0.272124" stop-color="white" stop-opacity="0.34"/>
<stop offset="1" stop-color="white"/>
</linearGradient>
<linearGradient id="paint12_linear_1645_17522" x1="202.632" y1="-9.70411" x2="219.059" y2="-22.1676" gradientUnits="userSpaceOnUse">
<stop stop-color="white" stop-opacity="0"/>
<stop offset="0.272124" stop-color="white" stop-opacity="0.34"/>
<stop offset="1" stop-color="white"/>
</linearGradient>
<linearGradient id="paint13_linear_1645_17522" x1="200.806" y1="-12.8756" x2="217.829" y2="-24.7032" gradientUnits="userSpaceOnUse">
<stop stop-color="white" stop-opacity="0"/>
<stop offset="0.272124" stop-color="white" stop-opacity="0.34"/>
<stop offset="1" stop-color="white"/>
</linearGradient>
<linearGradient id="paint14_linear_1645_17522" x1="199.299" y1="-15.3959" x2="216.894" y2="-26.5593" gradientUnits="userSpaceOnUse">
<stop stop-color="white" stop-opacity="0"/>
<stop offset="0.272124" stop-color="white" stop-opacity="0.34"/>
<stop offset="1" stop-color="white"/>
</linearGradient>
<linearGradient id="paint15_linear_1645_17522" x1="198.086" y1="-17.2575" x2="216.226" y2="-27.7295" gradientUnits="userSpaceOnUse">
<stop stop-color="white" stop-opacity="0"/>
<stop offset="0.272124" stop-color="white" stop-opacity="0.34"/>
<stop offset="1" stop-color="white"/>
</linearGradient>
<linearGradient id="paint16_linear_1645_17522" x1="197.134" y1="-18.449" x2="215.792" y2="-28.2035" gradientUnits="userSpaceOnUse">
<stop stop-color="white" stop-opacity="0"/>
<stop offset="0.272124" stop-color="white" stop-opacity="0.34"/>
<stop offset="1" stop-color="white"/>
</linearGradient>
<linearGradient id="paint17_linear_1645_17522" x1="196.414" y1="-18.9631" x2="215.562" y2="-27.975" gradientUnits="userSpaceOnUse">
<stop stop-color="white" stop-opacity="0"/>
<stop offset="0.272124" stop-color="white" stop-opacity="0.34"/>
<stop offset="1" stop-color="white"/>
</linearGradient>
<linearGradient id="paint18_linear_1645_17522" x1="195.9" y1="-18.7918" x2="215.508" y2="-27.0371" gradientUnits="userSpaceOnUse">
<stop stop-color="white" stop-opacity="0"/>
<stop offset="0.272124" stop-color="white" stop-opacity="0.34"/>
<stop offset="1" stop-color="white"/>
</linearGradient>
<linearGradient id="paint19_linear_1645_17522" x1="195.557" y1="-17.9304" x2="215.594" y2="-25.3863" gradientUnits="userSpaceOnUse">
<stop stop-color="white" stop-opacity="0"/>
<stop offset="0.272124" stop-color="white" stop-opacity="0.34"/>
<stop offset="1" stop-color="white"/>
</linearGradient>
<linearGradient id="paint20_linear_1645_17522" x1="195.359" y1="-16.3712" x2="215.794" y2="-23.0161" gradientUnits="userSpaceOnUse">
<stop stop-color="white" stop-opacity="0"/>
<stop offset="0.272124" stop-color="white" stop-opacity="0.34"/>
<stop offset="1" stop-color="white"/>
</linearGradient>
<linearGradient id="paint21_linear_1645_17522" x1="195.275" y1="-14.1153" x2="216.075" y2="-19.9291" gradientUnits="userSpaceOnUse">
<stop stop-color="white" stop-opacity="0"/>
<stop offset="0.272124" stop-color="white" stop-opacity="0.34"/>
<stop offset="1" stop-color="white"/>
</linearGradient>
<linearGradient id="paint22_linear_1645_17522" x1="195.275" y1="-11.1577" x2="216.405" y2="-16.1213" gradientUnits="userSpaceOnUse">
<stop stop-color="white" stop-opacity="0"/>
<stop offset="0.272124" stop-color="white" stop-opacity="0.34"/>
<stop offset="1" stop-color="white"/>
</linearGradient>
<linearGradient id="paint23_linear_1645_17522" x1="195.329" y1="-7.49792" x2="216.755" y2="-11.594" gradientUnits="userSpaceOnUse">
<stop stop-color="white" stop-opacity="0"/>
<stop offset="0.272124" stop-color="white" stop-opacity="0.34"/>
<stop offset="1" stop-color="white"/>
</linearGradient>
<linearGradient id="paint24_linear_1645_17522" x1="195.408" y1="-3.13454" x2="217.093" y2="-6.34687" gradientUnits="userSpaceOnUse">
<stop stop-color="white" stop-opacity="0"/>
<stop offset="0.272124" stop-color="white" stop-opacity="0.34"/>
<stop offset="1" stop-color="white"/>
</linearGradient>
<linearGradient id="paint25_linear_1645_17522" x1="195.483" y1="1.92084" x2="217.392" y2="-0.393189" gradientUnits="userSpaceOnUse">
<stop stop-color="white" stop-opacity="0"/>
<stop offset="0.272124" stop-color="white" stop-opacity="0.34"/>
<stop offset="1" stop-color="white"/>
</linearGradient>
<linearGradient id="paint26_linear_1645_17522" x1="195.523" y1="7.67574" x2="217.618" y2="6.27309" gradientUnits="userSpaceOnUse">
<stop stop-color="white" stop-opacity="0"/>
<stop offset="0.272124" stop-color="white" stop-opacity="0.34"/>
<stop offset="1" stop-color="white"/>
</linearGradient>
<linearGradient id="paint27_linear_1645_17522" x1="195.498" y1="14.1239" x2="217.74" y2="13.6442" gradientUnits="userSpaceOnUse">
<stop stop-color="white" stop-opacity="0"/>
<stop offset="0.272124" stop-color="white" stop-opacity="0.34"/>
<stop offset="1" stop-color="white"/>
</linearGradient>
<linearGradient id="paint28_linear_1645_17522" x1="195.381" y1="21.2575" x2="217.733" y2="21.7105" gradientUnits="userSpaceOnUse">
<stop stop-color="white" stop-opacity="0"/>
<stop offset="0.272124" stop-color="white" stop-opacity="0.34"/>
<stop offset="1" stop-color="white"/>
</linearGradient>
<linearGradient id="paint29_linear_1645_17522" x1="195.141" y1="29.0732" x2="217.562" y2="30.4673" gradientUnits="userSpaceOnUse">
<stop stop-color="white" stop-opacity="0"/>
<stop offset="0.272124" stop-color="white" stop-opacity="0.34"/>
<stop offset="1" stop-color="white"/>
</linearGradient>
<linearGradient id="paint30_linear_1645_17522" x1="194.751" y1="37.5575" x2="217.202" y2="39.8993" gradientUnits="userSpaceOnUse">
<stop stop-color="white" stop-opacity="0"/>
<stop offset="0.272124" stop-color="white" stop-opacity="0.34"/>
<stop offset="1" stop-color="white"/>
</linearGradient>
<linearGradient id="paint31_linear_1645_17522" x1="194.187" y1="46.7046" x2="216.628" y2="49.999" gradientUnits="userSpaceOnUse">
<stop stop-color="white" stop-opacity="0"/>
<stop offset="0.272124" stop-color="white" stop-opacity="0.34"/>
<stop offset="1" stop-color="white"/>
</linearGradient>
<linearGradient id="paint32_linear_1645_17522" x1="193.422" y1="56.5" x2="215.812" y2="60.7503" gradientUnits="userSpaceOnUse">
<stop stop-color="white" stop-opacity="0"/>
<stop offset="0.272124" stop-color="white" stop-opacity="0.34"/>
<stop offset="1" stop-color="white"/>
</linearGradient>
<linearGradient id="paint33_linear_1645_17522" x1="192.42" y1="66.9409" x2="214.719" y2="72.1484" gradientUnits="userSpaceOnUse">
<stop stop-color="white" stop-opacity="0"/>
<stop offset="0.272124" stop-color="white" stop-opacity="0.34"/>
<stop offset="1" stop-color="white"/>
</linearGradient>
<linearGradient id="paint34_linear_1645_17522" x1="191.156" y1="78.0137" x2="213.322" y2="84.1782" gradientUnits="userSpaceOnUse">
<stop stop-color="white" stop-opacity="0"/>
<stop offset="0.272124" stop-color="white" stop-opacity="0.34"/>
<stop offset="1" stop-color="white"/>
</linearGradient>
<linearGradient id="paint35_linear_1645_17522" x1="189.612" y1="89.6966" x2="211.603" y2="96.8162" gradientUnits="userSpaceOnUse">
<stop stop-color="white" stop-opacity="0"/>
<stop offset="0.272124" stop-color="white" stop-opacity="0.34"/>
<stop offset="1" stop-color="white"/>
</linearGradient>
<linearGradient id="paint36_linear_1645_17522" x1="187.764" y1="101.981" x2="209.54" y2="110.052" gradientUnits="userSpaceOnUse">
<stop stop-color="white" stop-opacity="0"/>
<stop offset="0.272124" stop-color="white" stop-opacity="0.34"/>
<stop offset="1" stop-color="white"/>
</linearGradient>
<linearGradient id="paint37_linear_1645_17522" x1="185.584" y1="114.851" x2="207.104" y2="123.867" gradientUnits="userSpaceOnUse">
<stop stop-color="white" stop-opacity="0"/>
<stop offset="0.272124" stop-color="white" stop-opacity="0.34"/>
<stop offset="1" stop-color="white"/>
</linearGradient>
<linearGradient id="paint38_linear_1645_17522" x1="183.046" y1="128.289" x2="204.268" y2="138.243" gradientUnits="userSpaceOnUse">
<stop stop-color="white" stop-opacity="0"/>
<stop offset="0.272124" stop-color="white" stop-opacity="0.34"/>
<stop offset="1" stop-color="white"/>
</linearGradient>
<linearGradient id="paint39_linear_1645_17522" x1="180.138" y1="142.278" x2="201.021" y2="153.161" gradientUnits="userSpaceOnUse">
<stop stop-color="white" stop-opacity="0"/>
<stop offset="0.272124" stop-color="white" stop-opacity="0.34"/>
<stop offset="1" stop-color="white"/>
</linearGradient>
<linearGradient id="paint40_linear_1645_17522" x1="176.827" y1="156.801" x2="197.331" y2="168.602" gradientUnits="userSpaceOnUse">
<stop stop-color="white" stop-opacity="0"/>
<stop offset="0.272124" stop-color="white" stop-opacity="0.34"/>
<stop offset="1" stop-color="white"/>
</linearGradient>
</defs>
</svg>
